<svg width="154" height="46" viewBox="0 0 154 46" fill="none" xmlns="http://www.w3.org/2000/svg">
<path fill-rule="evenodd" clip-rule="evenodd" d="M21.7048 4.16553C11.2726 4.16553 2.82739 12.6489 2.82739 23.0429C2.82739 33.4752 11.2726 41.9204 21.7048 41.9204C32.1371 41.9204 40.5822 33.4752 40.5822 23.0429C40.5822 12.6107 32.1371 4.16553 21.7048 4.16553ZM14.941 16.5467C13.3743 18.0752 12.419 20.1387 12.2279 22.3551H31.2582C31.0671 20.1769 30.0735 18.0752 28.545 16.5085L29.8061 15.2856C31.9078 17.3874 33.0924 20.2916 33.0924 23.2722C33.0924 26.2529 31.8696 29.1189 29.7296 31.2206L28.545 30.0742C30.1882 28.5457 31.1435 26.4057 31.2199 24.1511H12.1897C12.419 26.3675 13.3743 28.4692 14.9028 30.0742L13.6418 31.2206C9.32367 26.7879 9.36188 19.6802 13.7564 15.3238L14.941 16.5467ZM32.2135 33.8191C26.3668 39.6658 16.9664 39.6276 11.1579 33.8191C5.34948 28.0107 5.34948 18.6102 11.1579 12.8018C11.5783 13.2221 11.9604 13.6042 12.3425 13.9864C7.29836 19.1452 7.37479 27.4375 12.4954 32.5199C17.616 37.6022 25.9083 37.6022 31.0289 32.5199C36.1495 27.3993 36.2259 19.1452 31.1817 13.9482C31.6021 13.4896 31.946 13.1075 32.3281 12.8018C38.0984 18.6484 38.0601 28.0489 32.2135 33.8191Z" fill="white"/>
<path d="M53.3839 21.8966H65.1536V12.9929H67.37V33.1696H65.1536V23.8837H53.3839V33.1696H51.1675V12.9929H53.3839V21.8966Z" fill="white"/>
<path d="M134.969 21.8966H146.739V12.9929H148.955V33.1696H146.739V23.8837H134.969V33.1696H132.753V12.9929H134.969V21.8966Z" fill="white"/>
<path d="M73.446 21.8584H83.6872V23.8455H73.446V31.1825H84.1457V33.2078H71.2296V12.9929H84.184V14.98H73.446V21.8584Z" fill="white"/>
<path d="M91.2153 12.9546L98.3229 30.3035L105.469 12.9546H109.137V33.1695H106.921V14.5978L99.3165 33.1695H97.3676L89.6867 14.7888V33.1695H87.4703V12.9546H91.2153Z" fill="white"/>
<path d="M112.004 33.1696L119.341 12.9929H122.589L130.078 33.2078H127.671L126.142 29.0425H115.978L114.373 33.2078H112.004V33.1696ZM125.493 27.0555L121.022 14.6361L116.589 27.0555H125.493Z" fill="white"/>
</svg>
