<svg width="181" height="46" viewBox="0 0 181 46" fill="none" xmlns="http://www.w3.org/2000/svg">
<path d="M62.5442 21.2793H77.1046V10.5938H79.8465V34.8082H77.1046V23.664H62.5442V34.8082H59.8022V10.5938H62.5442V21.2793Z" fill="#367589"/>
<path d="M163.474 21.2793H178.035V10.5938H180.777V34.8082H178.035V23.664H163.474V34.8082H160.732V10.5938H163.474V21.2793Z" fill="#367589"/>
<path d="M87.3635 21.2334H100.033V23.6182H87.3635V32.4234H100.6V34.854H84.6216V10.5938H100.648V12.9785H87.3635V21.2334Z" fill="#367589"/>
<path d="M109.345 10.5479L118.138 31.3686L126.979 10.5479H131.517V34.8081H128.775V12.5199L119.367 34.8081H116.956L107.454 12.7492V34.8081H104.712V10.5479H109.345Z" fill="#367589"/>
<path d="M135.063 34.8082L144.14 10.5938H148.158L157.424 34.854H154.446L152.555 29.8552H139.98L137.994 34.854H135.063V34.8082ZM151.751 27.4705L146.22 12.5658L140.736 27.4705H151.751Z" fill="#367589"/>
<path fill-rule="evenodd" clip-rule="evenodd" d="M23.3535 0C10.4476 0 0 10.1811 0 22.6552C0 35.1751 10.4476 45.3103 23.3535 45.3103C36.2593 45.3103 46.7069 35.1751 46.7069 22.6552C46.7069 10.1352 36.2593 0 23.3535 0ZM14.9859 14.8589C13.0477 16.6933 11.8658 19.1698 11.6295 21.8297H35.172C34.9357 19.2156 33.7065 16.6933 31.8156 14.813L33.3756 13.3455C35.9757 15.8678 37.4412 19.3532 37.4412 22.9303C37.4412 26.5075 35.9284 29.947 33.2811 32.4693L31.8156 31.0935C33.8483 29.2591 35.0302 26.6909 35.1248 23.9851H11.5822C11.8658 26.6451 13.0477 29.1674 14.9387 31.0935L13.3786 32.4693C8.03662 27.1495 8.08389 18.6194 13.5204 13.3913L14.9859 14.8589ZM36.3539 35.5879C29.1209 42.6046 17.4915 42.5587 10.3058 35.5879C3.1201 28.6171 3.1201 17.3353 10.3058 10.3645C10.8258 10.869 11.2985 11.3276 11.7713 11.7862C5.53108 17.9774 5.62563 27.9291 11.9604 34.0286C18.2951 40.1281 28.5536 40.1281 34.8884 34.0286C41.2231 27.8833 41.3177 17.9774 35.0775 11.7403C35.5975 11.19 36.023 10.7314 36.4957 10.3645C43.6341 17.3812 43.5868 28.6629 36.3539 35.5879Z" fill="#367589"/>
</svg>
